<svg width="41" height="41" viewBox="0 0 41 41" fill="none" xmlns="http://www.w3.org/2000/svg">
<path d="M20.5 4.09998V13.325C20.5 14.1405 20.824 14.9227 21.4007 15.4993C21.9773 16.076 22.7595 16.4 23.575 16.4H32.8V33.825C32.8 34.6405 32.476 35.4227 31.8994 35.9993C31.3227 36.576 30.5406 36.9 29.725 36.9H11.275C10.4595 36.9 9.67733 36.576 9.10066 35.9993C8.52398 35.4227 8.20001 34.6405 8.20001 33.825V7.17498C8.20001 6.35943 8.52398 5.5773 9.10066 5.00062C9.67733 4.42395 10.4595 4.09998 11.275 4.09998H20.5ZM22.55 4.61248V13.325C22.55 13.5968 22.658 13.8575 22.8502 14.0498C23.0425 14.242 23.3032 14.35 23.575 14.35H32.2875L22.55 4.61248Z" fill="#5BBA6A"/>
</svg>
