<svg width="8" height="10" viewBox="0 0 8 10" fill="none" xmlns="http://www.w3.org/2000/svg">
<path d="M4.24288 0.015625C3.2506 0.0167167 2.29928 0.411353 1.5976 1.11296C0.895923 1.81457 0.501191 2.76585 0.5 3.75813C0.5 4.72188 1.24625 6.23013 2.71812 8.24088C2.89335 8.48092 3.12277 8.67621 3.38773 8.81084C3.65268 8.94547 3.94568 9.01564 4.24288 9.01564C4.54007 9.01564 4.83307 8.94547 5.09802 8.81084C5.36298 8.67621 5.5924 8.48092 5.76762 8.24088C7.2395 6.23013 7.98575 4.72188 7.98575 3.75813C7.98456 2.76585 7.58983 1.81457 6.88815 1.11296C6.18647 0.411353 5.23515 0.0167167 4.24288 0.015625ZM4.24288 5.24988C3.9462 5.24988 3.65619 5.1619 3.40952 4.99708C3.16285 4.83226 2.97059 4.59799 2.85706 4.3239C2.74352 4.04981 2.71382 3.74821 2.7717 3.45724C2.82957 3.16627 2.97244 2.89899 3.18221 2.68921C3.39199 2.47944 3.65927 2.33658 3.95024 2.2787C4.24121 2.22082 4.54281 2.25052 4.8169 2.36406C5.09099 2.47759 5.32526 2.66985 5.49008 2.91652C5.6549 3.16319 5.74288 3.4532 5.74288 3.74988C5.74288 4.1477 5.58484 4.52923 5.30354 4.81054C5.02223 5.09184 4.6407 5.24988 4.24288 5.24988Z" fill="black" fill-opacity="0.26"/>
</svg>
