<svg width="81" height="14" viewBox="0 0 81 14" fill="none" xmlns="http://www.w3.org/2000/svg">
<path d="M2.67588 2.352V11.648C2.67588 11.7351 2.72722 11.7911 2.82989 11.816C3.24057 11.8782 3.62559 11.9093 3.98494 11.9093C5.48652 11.9093 6.59024 11.5173 7.2961 10.7333C8.00197 9.93689 8.3549 8.63022 8.3549 6.81333C8.3549 5.18311 7.99555 3.98844 7.27685 3.22933C6.55815 2.47022 5.46085 2.09067 3.98494 2.09067C3.62559 2.09067 3.24057 2.12178 2.82989 2.184C2.72722 2.20889 2.67588 2.26489 2.67588 2.352ZM1.0973 13.8693C0.776454 13.832 0.513358 13.7013 0.308015 13.4773C0.102672 13.2409 0 12.9671 0 12.656V1.344C0 1.03289 0.102672 0.765333 0.308015 0.541333C0.513358 0.304889 0.776454 0.168 1.0973 0.130666C1.91868 0.0435554 2.8363 0 3.85019 0C6.13463 0 7.88005 0.578667 9.08644 1.736C10.3057 2.89333 10.9153 4.58578 10.9153 6.81333C10.9153 9.20267 10.3057 11.0009 9.08644 12.208C7.88005 13.4027 6.13463 14 3.85019 14C2.8363 14 1.91868 13.9564 1.0973 13.8693Z" fill="white"/>
<path d="M17.8203 6.51467C17.4482 5.992 16.8835 5.73067 16.1263 5.73067C15.3691 5.73067 14.7979 5.992 14.4129 6.51467C14.0407 7.02489 13.8547 7.84 13.8547 8.96C13.8547 10.08 14.0407 10.9013 14.4129 11.424C14.7979 11.9342 15.3691 12.1893 16.1263 12.1893C16.8835 12.1893 17.4482 11.9342 17.8203 11.424C18.2054 10.9013 18.3979 10.08 18.3979 8.96C18.3979 7.84 18.2054 7.02489 17.8203 6.51467ZM19.7069 12.6933C18.8599 13.5644 17.6663 14 16.1263 14C14.5862 14 13.3862 13.5644 12.5263 12.6933C11.6793 11.8098 11.2558 10.5653 11.2558 8.96C11.2558 7.35467 11.6793 6.11644 12.5263 5.24533C13.3862 4.36178 14.5862 3.92 16.1263 3.92C17.6663 3.92 18.8599 4.36178 19.7069 5.24533C20.5668 6.11644 20.9967 7.35467 20.9967 8.96C20.9967 10.5653 20.5668 11.8098 19.7069 12.6933Z" fill="white"/>
<path d="M26.5022 14C24.9108 14 23.6852 13.5769 22.8253 12.7307C21.9654 11.872 21.5355 10.6151 21.5355 8.96C21.5355 7.32978 21.9462 6.08533 22.7675 5.22667C23.6017 4.35556 24.7825 3.92 26.3097 3.92C26.9899 3.92 27.6444 3.96356 28.2733 4.05067C28.5685 4.088 28.8123 4.21867 29.0048 4.44267C29.1973 4.66667 29.2936 4.928 29.2936 5.22667C29.2936 5.47555 29.1909 5.67467 28.9856 5.824C28.7931 5.97333 28.5685 6.02311 28.3118 5.97333C27.8113 5.87378 27.253 5.824 26.637 5.824C25.8284 5.824 25.2252 6.07289 24.8274 6.57067C24.4295 7.06844 24.2306 7.86489 24.2306 8.96C24.2306 10.08 24.4424 10.8827 24.8659 11.368C25.2894 11.8533 25.9439 12.096 26.8295 12.096C27.4583 12.096 28.0038 12.04 28.4658 11.928C28.7097 11.8658 28.9278 11.9093 29.1203 12.0587C29.3257 12.208 29.4284 12.4009 29.4284 12.6373C29.4284 12.936 29.3321 13.1973 29.1396 13.4213C28.9599 13.6453 28.7225 13.7822 28.4273 13.832C27.7728 13.944 27.1311 14 26.5022 14Z" fill="white"/>
<path d="M34.4685 9.89333C33.1209 9.60711 32.1584 9.21511 31.5808 8.71733C31.0162 8.21955 30.7338 7.57244 30.7338 6.776C30.7338 5.88 31.0739 5.18311 31.7541 4.68533C32.4471 4.17511 33.4674 3.92 34.815 3.92C35.662 3.92 36.5027 3.99467 37.3369 4.144C37.6192 4.19378 37.8438 4.33067 38.0107 4.55467C38.1903 4.76622 38.2802 5.01511 38.2802 5.30133C38.2802 5.53778 38.1839 5.73067 37.9914 5.88C37.7989 6.01689 37.5807 6.05422 37.3369 5.992C36.6182 5.81778 35.861 5.73067 35.0653 5.73067C33.9102 5.73067 33.3327 6.04178 33.3327 6.664C33.3327 6.96267 33.4418 7.21156 33.6599 7.41067C33.8781 7.60978 34.2503 7.76533 34.7765 7.87733C36.2524 8.16356 37.2599 8.54933 37.7989 9.03467C38.3508 9.52 38.6267 10.2293 38.6267 11.1627C38.6267 12.0587 38.2802 12.7556 37.5871 13.2533C36.8941 13.7511 35.8866 14 34.5647 14C33.7049 14 32.8257 13.9004 31.9274 13.7013C31.645 13.6391 31.414 13.496 31.2343 13.272C31.0547 13.0356 30.9648 12.768 30.9648 12.4693C30.9648 12.2329 31.0611 12.0524 31.2536 11.928C31.4589 11.8036 31.6771 11.7724 31.9081 11.8347C32.7423 12.0587 33.5316 12.1707 34.276 12.1707C35.4439 12.1707 36.0278 11.8347 36.0278 11.1627C36.0278 10.8391 35.9123 10.584 35.6813 10.3973C35.4631 10.2107 35.0588 10.0427 34.4685 9.89333Z" fill="white"/>
<path d="M46.0675 6.29067C45.8108 6.29067 45.5926 6.20356 45.4129 6.02933C45.2333 5.84267 45.1434 5.62489 45.1434 5.376C45.1434 5.12711 45.2333 4.91556 45.4129 4.74133C45.5926 4.56711 45.8108 4.48 46.0675 4.48H46.8568C46.9723 4.48 47.03 4.424 47.03 4.312V3.864C47.03 2.49511 47.3765 1.512 48.0696 0.914666C48.7754 0.304889 49.969 0 51.6502 0C52.8951 0 54.0374 0.112 55.0769 0.335999C55.3849 0.398222 55.6352 0.56 55.8277 0.821333C56.033 1.07022 56.1357 1.35644 56.1357 1.68V12.7493C56.1357 13.0356 56.0266 13.2844 55.8084 13.496C55.6031 13.7076 55.3528 13.8133 55.0577 13.8133H54.5379C54.2427 13.8133 53.986 13.7076 53.7678 13.496C53.5497 13.2844 53.4406 13.0356 53.4406 12.7493V2.22133C53.4406 2.10933 53.3892 2.04089 53.2866 2.016C52.7347 1.89156 52.2727 1.82933 51.9005 1.82933C51.0021 1.82933 50.4053 1.96 50.1102 2.22133C49.8278 2.48267 49.6866 3.00533 49.6866 3.78933V4.312C49.6866 4.424 49.7444 4.48 49.8599 4.48H51.7465C52.0032 4.48 52.2214 4.56711 52.401 4.74133C52.5807 4.91556 52.6705 5.12711 52.6705 5.376C52.6705 5.62489 52.5807 5.84267 52.401 6.02933C52.2214 6.20356 52.0032 6.29067 51.7465 6.29067H49.8599C49.7444 6.29067 49.6866 6.34044 49.6866 6.44V12.7493C49.6866 13.0356 49.5776 13.2844 49.3594 13.496C49.154 13.7076 48.9038 13.8133 48.6086 13.8133H48.1273C47.8321 13.8133 47.5755 13.7076 47.3573 13.496C47.1391 13.2844 47.03 13.0356 47.03 12.7493V6.44C47.03 6.34044 46.9723 6.29067 46.8568 6.29067H46.0675Z" fill="white"/>
<path d="M63.8233 6.51467C63.4511 5.992 62.8864 5.73067 62.1292 5.73067C61.372 5.73067 60.8009 5.992 60.4159 6.51467C60.0437 7.02489 59.8576 7.84 59.8576 8.96C59.8576 10.08 60.0437 10.9013 60.4159 11.424C60.8009 11.9342 61.372 12.1893 62.1292 12.1893C62.8864 12.1893 63.4511 11.9342 63.8233 11.424C64.2083 10.9013 64.4008 10.08 64.4008 8.96C64.4008 7.84 64.2083 7.02489 63.8233 6.51467ZM65.7099 12.6933C64.8628 13.5644 63.6693 14 62.1292 14C60.5891 14 59.3892 13.5644 58.5293 12.6933C57.6823 11.8098 57.2587 10.5653 57.2587 8.96C57.2587 7.35467 57.6823 6.11644 58.5293 5.24533C59.3892 4.36178 60.5891 3.92 62.1292 3.92C63.6693 3.92 64.8628 4.36178 65.7099 5.24533C66.5698 6.11644 66.9997 7.35467 66.9997 8.96C66.9997 10.5653 66.5698 11.8098 65.7099 12.6933Z" fill="white"/>
<path d="M69.2993 12.7867L67.3742 5.13333C67.31 4.872 67.3614 4.63556 67.5282 4.424C67.7079 4.21244 67.9325 4.10667 68.202 4.10667H68.6833C69.0041 4.10667 69.2864 4.20622 69.5303 4.40533C69.7741 4.60444 69.9217 4.85333 69.9731 5.152L71.1666 11.7413C71.1666 11.7538 71.173 11.76 71.1859 11.76C71.2115 11.76 71.2244 11.7538 71.2244 11.7413L72.4372 5.152C72.5014 4.85333 72.6554 4.60444 72.8992 4.40533C73.1431 4.20622 73.419 4.10667 73.727 4.10667H74.6895C75.0104 4.10667 75.2927 4.20622 75.5366 4.40533C75.7804 4.60444 75.928 4.85333 75.9794 5.152L77.1922 11.7413C77.1922 11.7538 77.205 11.76 77.2307 11.76C77.2435 11.76 77.2499 11.7538 77.2499 11.7413L78.4435 5.152C78.5076 4.85333 78.6617 4.60444 78.9055 4.40533C79.1493 4.20622 79.4253 4.10667 79.7333 4.10667H80.1376C80.4199 4.10667 80.6445 4.21244 80.8113 4.424C80.991 4.63556 81.0424 4.872 80.9653 5.13333L79.0403 12.7867C78.9632 13.0853 78.7964 13.3342 78.5397 13.5333C78.2959 13.72 78.0135 13.8133 77.6927 13.8133H76.7301C76.4221 13.8133 76.1462 13.7138 75.9024 13.5147C75.6585 13.3156 75.5045 13.0667 75.4403 12.768L74.189 6.36533C74.189 6.35289 74.1826 6.34667 74.1698 6.34667C74.1569 6.34667 74.1505 6.35289 74.1505 6.36533L72.8992 12.768C72.8479 13.0667 72.7003 13.3156 72.4564 13.5147C72.2126 13.7138 71.9302 13.8133 71.6094 13.8133H70.6469C70.3388 13.8133 70.0565 13.72 69.7998 13.5333C69.5431 13.3342 69.3763 13.0853 69.2993 12.7867Z" fill="white"/>
<path d="M42.3954 9.14667V10.4592C42.3954 10.5752 42.4429 10.6865 42.5275 10.7685C42.6121 10.8506 42.7269 10.8967 42.8465 10.8967H44.2001V13.3758C44.2001 13.4919 44.1526 13.6031 44.068 13.6852C43.9834 13.7672 43.8686 13.8133 43.7489 13.8133H41.0418C40.9221 13.8133 40.8074 13.7672 40.7227 13.6852C40.6381 13.6031 40.5906 13.4919 40.5906 13.3758V9.58417C40.5906 9.46813 40.6381 9.35685 40.7227 9.27481C40.8074 9.19276 40.9221 9.14667 41.0418 9.14667H42.3954ZM42.6962 9.21958V10.4592C42.6962 10.4978 42.712 10.5349 42.7402 10.5623C42.7684 10.5896 42.8067 10.605 42.8465 10.605H44.1249L42.6962 9.21958Z" fill="white"/>
</svg>
