<svg width="9" height="9" viewBox="0 0 9 9" fill="none" xmlns="http://www.w3.org/2000/svg">
<path d="M4.5 0C2.01863 0 0 2.01863 0 4.5C0 6.98138 2.01863 9 4.5 9C6.98138 9 9 6.98138 9 4.5C9 2.01863 6.98138 0 4.5 0ZM6.62438 6.22013L6.42863 6.44513C6.222 6.65212 5.94975 6.75 5.67863 6.75C4.28587 6.75 2.25 4.82137 2.25 3.32138C2.25 3.05025 2.34788 2.778 2.55488 2.57137L2.77988 2.37563C2.94712 2.20837 3.21863 2.20837 3.38588 2.37563L3.76088 2.86387C3.92813 3.03113 3.92813 3.30263 3.76088 3.46988L3.44175 3.87075C3.77963 4.71225 4.35262 5.262 5.12925 5.55825L5.53012 5.23912C5.69737 5.07188 5.96888 5.07188 6.13613 5.23912L6.62438 5.61412C6.79163 5.78137 6.79163 6.05288 6.62438 6.22013Z" fill="black" fill-opacity="0.26"/>
</svg>
